# xmcd
#
# Track frame offsets:
#	150
#	13954
#	25526
#	34598
#	52532
#	61436
#	70632
#	83884
#	95707
#	108784
#	121318
#	130744
#	153517
#	164719
#
# Disc length: 2382 seconds
#
# Revision: 4
# Processed by: cddbd v1.5.2PL0 Copyright (c) Steve Scherf et al.
# Submitted via: audiograbber 1.83.01
#
DISCID=ab094c0e
DTITLE=Meat Purveyors, The - Someday soon things will be much worse!
DYEAR=2006
DGENRE=Country
TTITLE0=Burr under my saddle
TTITLE1=Look on your face
TTITLE2=Liquor store
TTITLE3=Rose-colored glasses
TTITLE4=I got wise
TTITLE5=666 pack
TTITLE6=Hot blooded
TTITLE7=Don't be sorry
TTITLE8=Fist City
TTITLE9=Don't you want me baby
TTITLE10=Circle sky
TTITLE11=Hanged man
TTITLE12=Snow in the door
TTITLE13=Plates a' spinnin'
EXTD=
EXTT0=
EXTT1=
EXTT2=
EXTT3=
EXTT4=
EXTT5=
EXTT6=
EXTT7=
EXTT8=
EXTT9=
EXTT10=
EXTT11=
EXTT12=
EXTT13=
PLAYORDER=
